<svg aria-hidden="true" style="position: absolute; width: 0; height: 0; overflow: hidden;" version="1.1" xmlns="http://www.w3.org/2000/svg" xmlns:xlink="http://www.w3.org/1999/xlink">
<defs>
<symbol id="icon-arrowDark" viewBox="0 0 48 32">
<path stroke-linejoin="miter" stroke-linecap="butt" stroke-miterlimit="4" stroke-width="2.6667" d="M0 16h44M44 16l-13.333-13.333M44 16l-13.333 13.333"></path>
</symbol>
<symbol id="icon-arrowWhite" viewBox="0 0 52 32">
<path stroke-linejoin="miter" stroke-linecap="butt" stroke-miterlimit="4" stroke-width="2.9091" d="M0 16h48M48 16l-14.545-14.545M48 16l-14.545 14.545"></path>
</symbol>
<symbol id="icon-bag" viewBox="0 0 36 32">
<path stroke-linejoin="miter" stroke-linecap="butt" stroke-miterlimit="4" stroke-width="1.1429" d="M16 23.429v-3.143h3.714v3.143M16 23.429v3.143h3.714v-3.143M16 23.429l-13.714-2.286M2.286 21.143l-1.714-0.286v-15.429h10M2.286 21.143v10.286h31.143v-10.286M12.857 5.429v-2.571h10v2.571M12.857 5.429h-2.286M12.857 5.429h10M10.571 5.429v-4.857h14.571v4.857M19.714 23.429l13.714-2.286M33.429 21.143l1.714-0.286v-15.429h-10M22.857 5.429h2.286"></path>
</symbol>
<symbol id="icon-calendar" viewBox="0 0 33 32">
<path stroke-linejoin="miter" stroke-linecap="butt" stroke-miterlimit="4" stroke-width="1.1636" d="M0.582 7.273v23.855h32v-23.855M0.582 7.273v-5.236h32v5.236M0.582 7.273h32M6.982 0v4.655M16.873 0v4.655M26.182 0v4.655M9.309 11.927h2.909v2.909h-2.909v-2.909zM3.491 11.927h2.909v2.909h-2.909v-2.909zM3.491 17.745h2.909v2.909h-2.909v-2.909zM3.491 23.564h2.909v2.909h-2.909v-2.909zM9.309 23.564h2.909v2.909h-2.909v-2.909zM15.127 23.564h2.909v2.909h-2.909v-2.909zM20.945 23.564h2.909v2.909h-2.909v-2.909zM26.764 23.564h2.909v2.909h-2.909v-2.909zM26.764 17.745h2.909v2.909h-2.909v-2.909zM26.764 11.927h2.909v2.909h-2.909v-2.909zM9.309 17.745h2.909v2.909h-2.909v-2.909zM20.945 11.927h2.909v2.909h-2.909v-2.909zM15.127 11.927h2.909v2.909h-2.909v-2.909zM15.127 17.745h2.909v2.909h-2.909v-2.909zM20.945 17.745h2.909v2.909h-2.909v-2.909z"></path>
</symbol>
<symbol id="icon-calendar-2" viewBox="0 0 33 32">
<path stroke-linejoin="miter" stroke-linecap="butt" stroke-miterlimit="4" stroke-width="1.0667" d="M0.533 6.667v20.267h1.867M0.533 6.667v-4.8h26.667v1.867M0.533 6.667h26.667M27.2 6.667v20.267h-24.8M27.2 6.667v-2.933M5.867 0v4.267M13.867 0v4.267M21.867 0v4.267M27.2 3.733h2.4v2.133M2.4 26.933v2.133h1.6M29.6 5.867v23.2h-25.6M29.6 5.867h2.4v25.6l-28-0.267v-2.133M11.733 14.4c0-0.533 0.427-1.867 2.133-1.867 1.6 0 2.4 1.6 1.867 2.667s-2.667 1.333-2.667 1.333c0 0 2.027-0.053 2.667 0.8 0.8 1.067 0.671 3.467-1.867 3.467-1.867 0-2.4-1.333-2.4-2.133"></path>
</symbol>
<symbol id="circles" viewBox="0 0 32 32">
<path stroke-linejoin="miter" stroke-linecap="butt" stroke-miterlimit="4" stroke-width="1.0667" d="M27.15 15.733c0 0.36 0.033 0.982 0 1.333-0.537 5.685-5.324 10.133-11.15 10.133-0.543 0-1.077-0.039-1.6-0.113M18.133 16c0 1.178-0.955 2.133-2.133 2.133M18.133 16c0-1.178-0.955-2.133-2.133-2.133M18.133 16c0.8 1.067 2.133 0.533 3.2 1.067M16 18.133c-1.178 0-2.133-0.955-2.133-2.133s0.955-2.133 2.133-2.133M16 18.133c0.809 1.027 0 1.867 0.533 2.933M16 13.867c0.507-1.272 0.017-1.974-0.533-3.2M3.279 7.2c-1.731 2.498-2.746 5.53-2.746 8.8 0 2.283 0.494 4.45 1.382 6.4M6.578 3.733c2.609-2.007 5.876-3.2 9.422-3.2 2.179 0 4.253 0.451 6.133 1.264M23.843 2.667c4.562 2.69 7.623 7.654 7.623 13.333 0 2.179-0.451 4.253-1.264 6.133M26.933 13.559c-1.114-5.012-5.586-8.759-10.933-8.759-6.186 0-11.2 5.014-11.2 11.2 0 4.362 2.494 8.142 6.133 9.991M27.467 26.38c-2.83 3.124-6.919 5.087-11.467 5.087-5.388 0-10.133-2.755-12.902-6.933M17.067 14.133c0.82-0.716 0.8-1.867 2.133-2.4M18.133 14.933c1.005-0.865 1.793-0.807 2.667-0.8M17.6 17.333c0.72 1.18 1.227 1.642 2.133 2.133M14.933 17.867c-1.001 0.489-1.365 1.052-1.6 2.667M14.133 16.8c-1.6-0.533-1.867 1.333-2.933 0.8M14.133 15.467c-0.8-0.533-1.757-1.199-3.2-0.8M14.667 14.4c0-1.6-1.867-1.867-1.6-2.933M22.933 16c0 3.829-3.104 6.933-6.933 6.933s-6.933-3.104-6.933-6.933c0-3.829 3.104-6.933 6.933-6.933s6.933 3.104 6.933 6.933zM5.867 5.867c0 0.884-0.716 1.6-1.6 1.6s-1.6-0.716-1.6-1.6c0-0.884 0.716-1.6 1.6-1.6s1.6 0.716 1.6 1.6zM14.4 26.667c0 0.884-0.716 1.6-1.6 1.6s-1.6-0.716-1.6-1.6c0-0.884 0.716-1.6 1.6-1.6s1.6 0.716 1.6 1.6zM30.933 23.467c0 0.884-0.716 1.6-1.6 1.6s-1.6-0.716-1.6-1.6c0-0.884 0.716-1.6 1.6-1.6s1.6 0.716 1.6 1.6zM24 2.133c0 0.589-0.478 1.067-1.067 1.067s-1.067-0.478-1.067-1.067c0-0.589 0.478-1.067 1.067-1.067s1.067 0.478 1.067 1.067zM28.267 14.4c0 0.589-0.478 1.067-1.067 1.067s-1.067-0.478-1.067-1.067c0-0.589 0.478-1.067 1.067-1.067s1.067 0.478 1.067 1.067zM3.733 23.467c0 0.589-0.478 1.067-1.067 1.067s-1.067-0.478-1.067-1.067c0-0.589 0.478-1.067 1.067-1.067s1.067 0.478 1.067 1.067z"></path>
</symbol>
<symbol id="icon-doors" viewBox="0 0 30 32">
<path stroke-linejoin="miter" stroke-linecap="butt" stroke-miterlimit="4" stroke-width="1.0323" d="M25.29 29.419v-26.581l-13.935-1.806v1.548M25.29 29.419l-13.935 1.548v-1.29M25.29 29.419h4.645M11.355 29.677h-4.129M11.355 29.677v-24.516M7.226 29.677v-24.516h4.129M7.226 29.677h-2.581M11.355 5.161v-2.581M11.355 2.581h-6.71v27.097M4.645 29.677h-4.645M16 15.484c0 0.57-0.462 1.032-1.032 1.032s-1.032-0.462-1.032-1.032c0-0.57 0.462-1.032 1.032-1.032s1.032 0.462 1.032 1.032z"></path>
</symbol>
<symbol id="icon-handshaking" viewBox="0 0 33 32">
<path stroke-linejoin="round" stroke-linecap="round" stroke-miterlimit="4" stroke-width="1.0323" d="M23.226 9.29l3.613-2.323 5.677 6.968-3.355 2.839M23.226 9.29l-4.903-0.258-4.387 1.097M23.226 9.29l5.935 7.484M26.839 21.677l-8-8-3.355-0.258c-0.344 0.602-1.187 2.065-1.806 3.097-0.774 1.29-1.548 1.29-2.581 0.774-0.826-0.413-0.688-1.548-0.516-2.065l2.581-4.903 0.774-0.194M26.839 21.677c0.344 0.43 0.826 1.497 0 2.323s-1.893 0.344-2.323 0M26.839 21.677l2.323-4.903M24.516 24l-4.129-4.129M24.516 24c0.344 0.43 0.826 1.497 0 2.323s-1.893 0.344-2.323 0M22.194 26.323l-2.839-2.839M22.194 26.323c0.344 0.516 0.826 1.703 0 2.323s-1.72 0.43-2.065 0.258M20.129 28.903l-1.806-1.806M20.129 28.903c0.258 0.516 0.432 1.375-0.258 2.065-0.774 0.774-1.945 0.258-2.977-0.774M7.187 21.615l-3.316-4.325M3.871 17.29l-3.355-2.839 6.194-7.484 3.871 2.323M3.871 17.29l6.71-8M10.581 9.29l3.355 0.839M16.516 6.71v-6.194M19.871 6.71l4.645-4.645M13.161 6.71l-4.645-4.645M8.982 24.373l1.031-1.006c0.638-0.623 0.638-1.632 0-2.255s-1.672-0.623-2.31 0l-1.031 1.006c-0.638 0.623-0.638 1.632 0 2.255s1.672 0.623 2.31 0zM10.891 27.019l1.736-1.679c0.638-0.623 0.635-1.645-0.003-2.268s-1.672-0.623-2.31 0l-1.734 1.692c-0.638 0.623-0.638 1.632 0 2.255s1.672 0.623 2.31 0zM13.403 29.092l1.601-1.563c0.638-0.623 0.638-1.632 0-2.255s-1.672-0.623-2.31 0l-1.601 1.563c-0.638 0.623-0.638 1.632 0 2.255s1.672 0.623 2.31 0zM16.050 31.017l1.020-0.995c0.638-0.623 0.638-1.632 0-2.255s-1.672-0.623-2.31 0l-1.020 0.995c-0.638 0.623-0.638 1.632 0 2.255s1.672 0.623 2.31 0z"></path>
</symbol>
<symbol id="icon-mastermind" viewBox="0 0 34 32">
<path stroke-linejoin="miter" stroke-linecap="butt" stroke-miterlimit="4" stroke-width="1.0667" d="M26.133 7.733c2.044 0.8 6.293 3.52 6.933 8s-1.867 7.556-3.2 8.533v7.2h-11.733M18.133 31.467v-3.2h-3.2c-0.711 0.089-2.133-0.32-2.133-2.667v-3.2h-2.933l4.267-5.6M18.133 31.467h-8v-3.2h-2.667c-0.889 0.089-2.667-0.32-2.667-2.667v-3.2h-3.2l4.267-5.333c-0.089-1.511 0.373-5.013 2.933-6.933M14.533 13.6h6.267M17.6 12v-2.4M17.6 9.6c-0.8 0-1.067-0.8-1.067-0.8M17.6 9.6c0.8 0 1.067-0.8 1.067-0.8M17.333 2.667h0.533M11.467 8.533h0.533M23.2 8.533h0.533M14.533 3.222l0.267 0.462M20.4 3.684l0.267-0.462M12.288 5.467l0.462 0.267M22.45 11.333l0.462 0.267M12.288 11.6l0.462-0.267M22.45 5.733l0.462-0.267M26.133 9.067c0 4.713-3.82 8.533-8.533 8.533s-8.533-3.82-8.533-8.533c0-4.713 3.82-8.533 8.533-8.533s8.533 3.821 8.533 8.533zM21.333 8.533c0-2.062-1.671-3.733-3.733-3.733s-3.733 1.671-3.733 3.733c0 1.269 0.633 2.39 1.6 3.064 0.401 0.28 0.533 3.602 0.533 3.602 1.177 0.235 2.133 0.267 3.2 0 0 0 0.132-3.323 0.533-3.602 0.967-0.675 1.6-1.796 1.6-3.064z"></path>
</symbol>
<symbol id="icon-star" viewBox="0 0 34 32">
<path d="M16.672 0.516l0.45-0.253c-0.091-0.162-0.263-0.263-0.45-0.263s-0.358 0.1-0.45 0.263l0.45 0.253zM22.064 10.082l-0.45 0.253c0.074 0.131 0.201 0.223 0.348 0.253l0.102-0.506zM32.828 12.254l0.38 0.349c0.126-0.137 0.168-0.332 0.111-0.509s-0.206-0.31-0.389-0.346l-0.102 0.506zM25.396 20.338l-0.38-0.349c-0.102 0.11-0.15 0.26-0.133 0.409l0.513-0.059zM26.657 31.247l-0.215 0.469c0.169 0.078 0.367 0.058 0.518-0.052s0.231-0.292 0.209-0.477l-0.513 0.059zM16.672 26.677l0.215-0.469c-0.136-0.062-0.293-0.062-0.43 0l0.215 0.469zM6.687 31.247l-0.513-0.059c-0.021 0.185 0.059 0.367 0.209 0.477s0.349 0.129 0.518 0.052l-0.215-0.469zM7.948 20.338l0.513 0.059c0.017-0.149-0.031-0.298-0.133-0.409l-0.38 0.349zM0.516 12.254l-0.102-0.506c-0.183 0.037-0.331 0.169-0.389 0.346s-0.015 0.372 0.111 0.509l0.38-0.349zM11.28 10.082l0.102 0.506c0.147-0.030 0.274-0.122 0.348-0.253l-0.45-0.253zM21.104 20.704v0.516h0.503l0.013-0.503-0.516-0.013zM12.33 20.704l-0.516 0.013 0.013 0.503h0.503v-0.516zM21.104 18.898v0zM12.33 18.898v0zM16.223 0.77l5.392 9.566 0.899-0.507-5.392-9.566-0.899 0.507zM21.962 10.588l10.764 2.172 0.204-1.012-10.764-2.172-0.204 1.012zM32.448 11.905l-7.432 8.084 0.76 0.699 7.432-8.084-0.76-0.699zM24.884 20.398l1.261 10.908 1.025-0.119-1.261-10.908-1.025 0.119zM26.872 30.777l-9.985-4.57-0.43 0.939 9.985 4.57 0.43-0.939zM16.457 26.207l-9.985 4.57 0.43 0.939 9.985-4.57-0.43-0.939zM7.2 31.306l1.261-10.908-1.025-0.119-1.261 10.908 1.025 0.119zM8.328 19.989l-7.432-8.084-0.76 0.699 7.432 8.084 0.76-0.699zM0.618 12.76l10.764-2.172-0.204-1.012-10.764 2.172 0.204 1.012zM11.73 10.336l5.392-9.566-0.899-0.507-5.392 9.566 0.899 0.507zM19.040 13.22c0 0.739-0.242 1.311-0.627 1.696s-0.956 0.627-1.696 0.627v1.032c0.971 0 1.819-0.323 2.426-0.929s0.929-1.455 0.929-2.426h-1.032zM16.717 15.543c-0.739 0-1.31-0.242-1.696-0.627s-0.627-0.957-0.627-1.696h-1.032c0 0.971 0.323 1.819 0.929 2.426s1.455 0.929 2.426 0.929v-1.032zM14.394 13.22c0-0.739 0.242-1.311 0.627-1.696s0.957-0.627 1.696-0.627v-1.032c-0.971 0-1.819 0.323-2.426 0.929s-0.929 1.455-0.929 2.426h1.032zM16.717 10.898c0.739 0 1.311 0.242 1.696 0.627s0.627 0.957 0.627 1.696h1.032c0-0.971-0.323-1.819-0.929-2.426s-1.455-0.929-2.426-0.929v1.032zM21.104 20.188h-8.774v1.032h8.774v-1.032zM16.717 16.575c2.118 0 3.588 1.261 3.887 2.449l1.001-0.252c-0.438-1.741-2.402-3.229-4.888-3.229v1.032zM20.604 19.024c-0.010-0.038-0.006-0.048-0.003 0.024 0.002 0.052 0.004 0.123 0.005 0.209 0.002 0.171 0.001 0.387-0.002 0.601s-0.007 0.422-0.010 0.577c-0.002 0.078-0.003 0.142-0.004 0.187-0.001 0.022-0.001 0.040-0.001 0.052-0 0.006-0 0.010-0 0.014-0 0.002-0 0.003-0 0.003s0 0.001 0 0.001 0 0 0 0-0 0-0 0 0 0 0.516 0.013 0.516 0.013 0.516 0.013 0-0 0-0 0-0 0-0 0-0.001 0-0.001 0-0.002 0-0.004 0-0.008 0-0.014c0-0.012 0.001-0.030 0.001-0.053 0.001-0.046 0.003-0.111 0.004-0.189 0.003-0.157 0.007-0.369 0.010-0.586s0.004-0.442 0.002-0.625c-0.001-0.091-0.003-0.176-0.006-0.246-0.002-0.049-0.007-0.147-0.027-0.227l-1.001 0.252zM12.33 20.704c0.516-0.013 0.516-0.013 0.516-0.013s0 0 0-0 0-0 0-0-0-0-0-0.001-0-0.002-0-0.003-0-0.008-0-0.014c-0-0.012-0.001-0.029-0.001-0.052-0.001-0.045-0.003-0.109-0.004-0.187-0.003-0.155-0.007-0.364-0.010-0.577s-0.004-0.43-0.002-0.601c0.001-0.086 0.003-0.157 0.005-0.209 0.003-0.072 0.007-0.063-0.003-0.024l-1.001-0.252c-0.020 0.080-0.025 0.178-0.027 0.227-0.003 0.070-0.005 0.155-0.006 0.246-0.002 0.183-0.001 0.409 0.002 0.625s0.007 0.429 0.010 0.586c0.002 0.079 0.003 0.144 0.004 0.189 0.001 0.023 0.001 0.041 0.001 0.053 0 0.006 0 0.011 0 0.014 0 0.002 0 0.003 0 0.004s0 0.001 0 0.001 0 0 0 0 0 0 0 0 0 0 0.516-0.013zM12.83 19.024c0.299-1.188 1.769-2.449 3.887-2.449v-1.032c-2.486 0-4.449 1.488-4.888 3.229l1.001 0.252zM12.072 23.801h9.29v-1.032h-9.29v1.032z"></path>
</symbol>
<symbol id="list-1" viewBox="0 0 32 32">
<path stroke-linejoin="miter" stroke-linecap="butt" stroke-miterlimit="4" stroke-width="1.8824" d="M12.235 1.882h18.824M12.235 7.529h18.824M12.235 13.176h18.824M12.235 18.824h18.824M12.235 24.471h18.824M12.235 30.118h18.824M1.882 1.882v5.647h5.647v-5.647h-5.647zM1.882 13.176v5.647h5.647v-5.647h-5.647zM1.882 24.471v5.647h5.647v-5.647h-5.647z"></path>
</symbol>
<symbol id="grid-2" viewBox="0 0 30 32">
<path stroke-linejoin="miter" stroke-linecap="butt" stroke-miterlimit="4" stroke-width="1.8824" d="M0 1.882h30.118M0 7.529h30.118M0 13.176h30.118M0 18.824h30.118M0 24.471h30.118M0 30.118h30.118"></path>
</symbol>
<symbol id="list-2" viewBox="0 0 26 32">
<path stroke-linejoin="miter" stroke-linecap="butt" stroke-miterlimit="4" stroke-width="1.8824" d="M0 1.882h3.765M0 7.529h3.765M0 13.176h3.765M0 18.824h3.765M0 24.471h3.765M0 30.118h3.765M7.529 1.882h3.765M7.529 7.529h3.765M7.529 13.176h3.765M7.529 18.824h3.765M7.529 24.471h3.765M7.529 30.118h3.765M26.353 1.882h-3.765M26.353 7.529h-3.765M26.353 13.176h-3.765M26.353 18.824h-3.765M26.353 24.471h-3.765M26.353 30.118h-3.765M18.824 30.118h-3.765M15.059 24.471h3.765M18.824 18.824h-3.765M15.059 13.176h3.765M18.824 7.529h-3.765M15.059 1.882h3.765"></path>
</symbol>
<symbol id="grid-1" viewBox="0 0 32 32">
<path d="M7 12h-6c-0.553 0-1 0.447-1 1v6c0 0.553 0.447 1 1 1h6c0.553 0 1-0.447 1-1v-6c0-0.553-0.447-1-1-1zM6 17c0 0.553-0.447 1-1 1h-2c-0.553 0-1-0.447-1-1v-2c0-0.553 0.447-1 1-1h2c0.553 0 1 0.447 1 1v2zM7 0h-6c-0.553 0-1 0.447-1 1v6c0 0.553 0.447 1 1 1h6c0.553 0 1-1.447 1-2v-5c0-0.553-0.447-1-1-1zM6 5c0 0.553-0.447 1-1 1h-2c-0.553 0-1-0.447-1-1v-2c0-0.553 0.447-1 1-1h2c0.553 0 1 0.447 1 1v2zM7 24h-6c-0.553 0-1 0.447-1 1v6c0 0.553 0.447 1 1 1h6c0.553 0 1-0.447 1-1v-6c0-0.553-0.447-1-1-1zM6 29c0 0.553-0.447 1-1 1h-2c-0.553 0-1-0.447-1-1v-2c0-0.553 0.447-1 1-1h2c0.553 0 1 0.447 1 1v2zM19 12h-6c-0.553 0-1 0.447-1 1v6c0 0.553 0.447 1 1 1h6c0.553 0 1-0.447 1-1v-6c0-0.553-0.447-1-1-1zM18 17c0 0.553-0.447 1-1 1h-2c-0.553 0-1-0.447-1-1v-2c0-0.553 0.447-1 1-1h2c0.553 0 1 0.447 1 1v2zM19 24h-6c-0.553 0-1 0.447-1 1v6c0 0.553 0.447 1 1 1h6c0.553 0 1-0.447 1-1v-6c0-0.553-0.447-1-1-1zM18 29c0 0.553-0.447 1-1 1h-2c-0.553 0-1-0.447-1-1v-2c0-0.553 0.447-1 1-1h2c0.553 0 1 0.447 1 1v2zM31 12h-6c-0.553 0-1 0.447-1 1v6c0 0.553 0.447 1 1 1h6c0.553 0 1-0.447 1-1v-6c0-0.553-0.447-1-1-1zM30 17c0 0.553-0.447 1-1 1h-2c-0.553 0-1-0.447-1-1v-2c0-0.553 0.447-1 1-1h2c0.553 0 1 0.447 1 1v2zM31 0h-6c-0.553 0-1 0.447-1 1v6c0 0.553 0.447 1 1 1h6c0.553 0 1-1.447 1-2v-5c0-0.553-0.447-1-1-1zM30 5c0 0.553-0.447 1-1 1h-2c-0.553 0-1-0.447-1-1v-2c0-0.553 0.447-1 1-1h2c0.553 0 1 0.447 1 1v2zM19 0h-6c-0.553 0-1 0.447-1 1v6c0 0.553 0.447 1 1 1h6c0.553 0 1-1.447 1-2v-5c0-0.553-0.447-1-1-1zM18 5c0 0.553-0.447 1-1 1h-2c-0.553 0-1-0.447-1-1v-2c0-0.553 0.447-1 1-1h2c0.553 0 1 0.447 1 1v2zM31 24h-6c-0.553 0-1 0.447-1 1v6c0 0.553 0.447 1 1 1h6c0.553 0 1-0.447 1-1v-6c0-0.553-0.447-1-1-1zM30 29c0 0.553-0.447 1-1 1h-2c-0.553 0-1-0.447-1-1v-2c0-0.553 0.447-1 1-1h2c0.553 0 1 0.447 1 1v2z"></path>
</symbol>
</defs>
</svg>
